<svg width="268" height="114" viewBox="0 0 268 114" fill="none" xmlns="http://www.w3.org/2000/svg">
<path d="M52.2231 42.5227C51.9367 47.862 50.3398 52.8419 47.7498 56.4727C45.1599 60.1034 41.7665 62.1191 38.2441 62.1191C34.7218 62.1191 31.3284 60.1034 28.7384 56.4727C26.1484 52.8419 24.5515 47.862 24.2651 42.5227C24.2107 41.3603 24.4612 40.2124 24.9618 39.3301C25.2038 38.8936 25.5013 38.5359 25.8365 38.2785C26.1717 38.0212 26.5376 37.8696 26.9123 37.8327C27.2897 37.7855 27.6694 37.8524 28.0297 38.0294C28.3899 38.2063 28.7236 38.49 29.0115 38.864C29.2989 39.2356 29.5349 39.6906 29.7055 40.2023C29.8761 40.714 29.9781 41.2723 30.0054 41.8446C30.1615 45.0071 31.0978 47.963 32.6265 50.12C34.1553 52.2769 36.1635 53.4754 38.2488 53.4754C40.334 53.4754 42.3423 52.2769 43.871 50.12C45.3997 47.963 46.336 45.0071 46.4922 41.8446C46.5215 41.2723 46.6246 40.7144 46.7956 40.2027C46.9667 39.691 47.2023 39.2356 47.4891 38.8624C47.7759 38.4892 48.1082 38.2055 48.467 38.0277C48.8259 37.8498 49.2043 37.7811 49.5806 37.8257C49.9569 37.8702 50.3237 38.027 50.6602 38.2871C50.9966 38.5473 51.2961 38.9057 51.5415 39.3418C51.7868 39.778 51.9733 40.2834 52.0903 40.8291C52.2072 41.3749 52.2524 41.9504 52.2231 42.5227Z" fill="#146EB4"/>
<path d="M38.2164 7.00514e-06C30.8041 0.00280079 23.5587 3.34818 17.3964 9.61311C11.2341 15.8781 6.43173 24.7812 3.59641 35.1969C0.761089 45.6125 0.0201971 57.0728 1.4674 68.1288C2.91461 79.1848 6.48493 89.3399 11.7269 97.3101C16.9689 105.28 23.6471 110.708 30.9172 112.906C38.1873 115.104 45.7227 113.974 52.5707 109.66C59.4186 105.345 65.2716 98.0393 69.3895 88.6661C73.5074 79.2928 75.7053 68.2729 75.7053 57C75.7065 49.513 74.7376 42.0989 72.854 35.1816C70.9703 28.2643 68.2088 21.9793 64.7272 16.6858C61.2457 11.3923 57.1124 7.19407 52.5635 4.33104C48.0147 1.46801 43.1394 -0.0037052 38.2164 7.00514e-06ZM58.2148 78.5851C58.2148 80.8007 57.6368 82.9257 56.6075 84.4936C55.5783 86.0615 54.182 86.9442 52.7253 86.948H23.7076C22.25 86.9442 20.8527 86.062 19.822 84.4944C18.7913 82.9269 18.2112 80.8019 18.2087 78.5851V35.4149C18.2112 33.1994 18.7916 31.0759 19.8226 29.5106C20.8536 27.9453 22.2508 27.0662 23.7076 27.0662H52.7253C54.1812 27.0662 55.5775 27.9458 56.607 29.5115C57.6365 31.0771 58.2148 33.2007 58.2148 35.4149V78.5851Z" fill="#146EB4"/>
<path d="M120.075 27.6577V82.4963C120.094 82.7663 120.073 83.0394 120.014 83.2954C119.955 83.5514 119.859 83.7837 119.733 83.9751C119.607 84.1664 119.455 84.3119 119.287 84.4007C119.119 84.4896 118.941 84.5194 118.765 84.4881H114.29C114.114 84.5171 113.937 84.4855 113.77 84.3957C113.604 84.3059 113.453 84.1601 113.328 83.969C113.203 83.7779 113.108 83.5464 113.049 83.2915C112.99 83.0367 112.97 82.765 112.989 82.4963V79.5297C111.033 83.3297 108.09 85.6182 104.085 85.6182C96.7596 85.6182 90.707 75.984 90.707 63.4822C90.707 50.9803 96.7596 41.332 104.085 41.332C108.09 41.332 111.033 43.6205 112.989 47.4205V27.6435C112.968 27.3738 112.988 27.1004 113.046 26.8438C113.104 26.5871 113.199 26.3538 113.324 26.1611C113.449 25.9684 113.601 25.8213 113.768 25.7306C113.935 25.64 114.113 25.6082 114.29 25.6376H118.765C118.942 25.6082 119.122 25.6404 119.29 25.7318C119.458 25.8231 119.611 25.9713 119.737 26.1653C119.863 26.3593 119.958 26.5942 120.017 26.8525C120.075 27.1109 120.095 27.386 120.075 27.6577ZM112.989 63.4822C112.963 61.1888 112.496 58.9581 111.645 57.07C110.795 55.182 109.598 53.7209 108.207 52.8701C106.816 52.0194 105.292 51.8169 103.825 52.2881C102.359 52.7593 101.017 53.8832 99.9664 55.5187C98.9161 57.1542 98.2047 59.2284 97.9217 61.4808C97.6387 63.7332 97.7966 66.0635 98.3756 68.1789C98.9546 70.2944 99.9289 72.1008 101.176 73.3713C102.424 74.6418 103.888 75.3198 105.386 75.3201C106.404 75.3687 107.418 75.0942 108.363 74.5138C109.308 73.9335 110.165 73.0599 110.879 71.948C111.593 70.8361 112.149 69.5099 112.512 68.053C112.875 66.596 113.038 65.0398 112.989 63.4822Z" fill="black"/>
<path d="M145.77 42.4613C145.946 42.43 146.125 42.4598 146.293 42.5487C146.46 42.6375 146.613 42.783 146.738 42.9743C146.864 43.1657 146.96 43.398 147.02 43.654C147.079 43.91 147.1 44.1831 147.08 44.4531V82.4955C147.1 82.7654 147.079 83.0386 147.02 83.2946C146.96 83.5506 146.864 83.7829 146.738 83.9742C146.613 84.1656 146.46 84.3111 146.293 84.3999C146.125 84.4887 145.946 84.5186 145.77 84.4873H141.295C141.12 84.5163 140.942 84.4847 140.776 84.3949C140.61 84.305 140.458 84.1592 140.334 83.9681C140.209 83.7771 140.114 83.5456 140.055 83.2907C139.996 83.0359 139.976 82.7641 139.994 82.4955V80.1646C138.454 83.7245 135.944 85.6174 132.53 85.6174C127.428 85.6174 123.608 79.6137 123.608 69.3156V44.4531C123.589 44.1844 123.61 43.9127 123.669 43.6578C123.727 43.403 123.823 43.1715 123.947 42.9804C124.072 42.7893 124.223 42.6435 124.39 42.5537C124.556 42.4639 124.734 42.4323 124.909 42.4613H129.384C129.56 42.43 129.739 42.4598 129.906 42.5487C130.074 42.6375 130.226 42.783 130.352 42.9743C130.478 43.1657 130.574 43.398 130.633 43.654C130.693 43.91 130.713 44.1831 130.694 44.4531V68.468C130.694 73.2851 132.54 75.5312 135.04 75.5312C137.808 75.5312 139.994 73.0732 139.994 66.7587V44.4531C139.976 44.1844 139.996 43.9127 140.055 43.6578C140.114 43.403 140.209 43.1715 140.334 42.9804C140.458 42.7893 140.61 42.6435 140.776 42.5537C140.942 42.4639 141.12 42.4323 141.295 42.4613H145.77Z" fill="black"/>
<path d="M174.189 84.4896H168.976C168.668 84.5259 168.359 84.4396 168.079 84.2391C167.8 84.0386 167.559 83.7307 167.38 83.3454L158.365 65.5744V82.5261C158.384 82.7947 158.364 83.0665 158.305 83.3213C158.246 83.5762 158.151 83.8076 158.026 83.9987C157.902 84.1898 157.75 84.3356 157.584 84.4255C157.417 84.5153 157.24 84.5469 157.065 84.5179H152.617C152.442 84.5469 152.264 84.5153 152.098 84.4255C151.932 84.3356 151.78 84.1898 151.656 83.9987C151.531 83.8076 151.436 83.5762 151.377 83.3213C151.318 83.0665 151.298 82.7947 151.316 82.5261V27.6591C151.296 27.3894 151.316 27.116 151.374 26.8594C151.432 26.6027 151.527 26.3694 151.652 26.1767C151.777 25.984 151.928 25.8369 152.095 25.7462C152.263 25.6556 152.441 25.6238 152.617 25.6532H157.092C157.269 25.6238 157.447 25.6556 157.614 25.7462C157.781 25.8369 157.933 25.984 158.058 26.1767C158.183 26.3694 158.278 26.6027 158.336 26.8594C158.394 27.116 158.414 27.3894 158.393 27.6591V60.9409L166.863 43.6785C167.034 43.2865 167.268 42.9688 167.543 42.756C167.818 42.5431 168.124 42.4424 168.431 42.4636H173.681C174.752 42.4636 175.111 43.5372 174.466 44.8792L165.239 63.2435L174.945 82.074C175.619 83.3454 175.259 84.4896 174.189 84.4896Z" fill="black"/>
<path d="M188.769 41.334C194.831 41.334 199.933 46.8574 199.933 57.8054V82.4983C199.952 82.767 199.931 83.0387 199.872 83.2935C199.814 83.5484 199.719 83.7799 199.594 83.971C199.469 84.1621 199.318 84.3078 199.151 84.3977C198.985 84.4875 198.807 84.5191 198.632 84.4901H194.323C194.148 84.5191 193.97 84.4875 193.804 84.3977C193.637 84.3078 193.486 84.1621 193.361 83.971C193.237 83.7799 193.141 83.5484 193.083 83.2935C193.024 83.0387 193.003 82.767 193.022 82.4983V80.8455C191.445 83.7979 189.064 85.6202 185.586 85.6202C180.696 85.6202 176.359 81.2269 176.359 72.4121C176.359 63.5972 180.723 59.1897 185.586 59.1897C188.281 58.972 190.933 60.3018 193.022 62.9191V58.441C193.022 53.4544 191.371 51.3778 188.769 51.3778C186.693 51.3778 185.171 52.6916 184.7 54.966C184.414 56.0961 184.128 56.76 183.344 56.76H178.952C178.77 56.7952 178.585 56.7645 178.412 56.6703C178.239 56.5761 178.083 56.421 177.957 56.2176C177.83 56.0142 177.737 55.7681 177.683 55.4992C177.63 55.2303 177.619 54.946 177.651 54.6693C178.334 46.0805 183.141 41.334 188.769 41.334ZM193.022 72.4121C193.022 69.1771 191.103 67.1711 187.985 67.1711C184.866 67.1711 183.418 69.389 183.418 72.4121C183.418 75.4351 184.866 77.6388 187.985 77.6388C191.103 77.6388 193.022 75.4351 193.022 72.4121Z" fill="black"/>
<path d="M215.609 41.334C221.67 41.334 226.773 46.8574 226.773 57.8054V82.4983C226.792 82.767 226.771 83.0387 226.712 83.2935C226.654 83.5484 226.558 83.7799 226.434 83.971C226.309 84.1621 226.158 84.3078 225.991 84.3977C225.825 84.4875 225.647 84.5191 225.472 84.4901H221.163C220.988 84.5191 220.81 84.4875 220.644 84.3977C220.477 84.3078 220.326 84.1621 220.201 83.971C220.076 83.7799 219.981 83.5484 219.922 83.2935C219.864 83.0387 219.843 82.767 219.862 82.4983V80.8455C218.284 83.7979 215.904 85.6202 212.426 85.6202C207.536 85.6202 203.199 81.2269 203.199 72.4121C203.199 63.5972 207.563 59.1897 212.426 59.1897C215.121 58.972 217.773 60.3018 219.862 62.9191V58.441C219.862 53.4544 218.211 51.3778 215.609 51.3778C213.533 51.3778 212.01 52.6916 211.54 54.966C211.254 56.0961 210.968 56.76 210.184 56.76H205.792C205.61 56.7952 205.425 56.7645 205.252 56.6703C205.079 56.5761 204.923 56.421 204.797 56.2176C204.67 56.0142 204.576 55.7681 204.523 55.4992C204.47 55.2303 204.459 54.946 204.491 54.6693C205.174 46.0805 209.981 41.334 215.563 41.334H215.609ZM219.862 72.4121C219.862 69.1771 217.934 67.1711 214.824 67.1711C211.715 67.1711 210.257 69.389 210.257 72.4121C210.257 75.4351 211.706 77.6388 214.824 77.6388C217.943 77.6388 219.862 75.4351 219.862 72.4121Z" fill="black"/>
<path d="M244.884 41.334C249.986 41.334 253.806 47.3377 253.806 57.6358V82.4983C253.825 82.7683 253.804 83.0414 253.745 83.2974C253.686 83.5534 253.589 83.7857 253.464 83.9771C253.338 84.1684 253.185 84.3139 253.018 84.4027C252.85 84.4915 252.672 84.5214 252.495 84.4901H248.021C247.846 84.5169 247.669 84.4836 247.504 84.3927C247.339 84.3019 247.189 84.1557 247.065 83.9649C246.941 83.7741 246.847 83.5435 246.789 83.2897C246.731 83.036 246.71 82.7656 246.729 82.4983V58.4834C246.729 53.6663 244.884 51.4202 242.383 51.4202C239.615 51.4202 237.429 53.8782 237.429 60.1927V82.4983C237.448 82.7683 237.427 83.0414 237.368 83.2974C237.309 83.5534 237.213 83.7857 237.087 83.9771C236.961 84.1684 236.808 84.3139 236.641 84.4027C236.473 84.4915 236.295 84.5214 236.118 84.4901H231.644C231.468 84.5191 231.291 84.4875 231.124 84.3977C230.958 84.3078 230.807 84.1621 230.682 83.971C230.557 83.7799 230.462 83.5484 230.403 83.2935C230.344 83.0387 230.324 82.767 230.343 82.4983V44.4559C230.324 44.1873 230.344 43.9155 230.403 43.6607C230.462 43.4058 230.557 43.1743 230.682 42.9833C230.807 42.7922 230.958 42.6464 231.124 42.5565C231.291 42.4667 231.468 42.4351 231.644 42.4641H236.118C236.295 42.4328 236.473 42.4627 236.641 42.5515C236.808 42.6403 236.961 42.7858 237.087 42.9772C237.213 43.1685 237.309 43.4008 237.368 43.6568C237.427 43.9128 237.448 44.1859 237.429 44.4559V46.7868C238.96 43.2269 241.479 41.334 244.893 41.334H244.884Z" fill="black"/>
<path d="M260.654 20.584C259.312 20.5812 258 21.1878 256.884 22.3269C255.767 23.4661 254.897 25.0867 254.382 26.9837C253.867 28.8807 253.732 30.9688 253.992 32.9838C254.253 34.9988 254.898 36.8502 255.846 38.3037C256.794 39.7572 258.003 40.7475 259.318 41.1492C260.634 41.551 261.998 41.3462 263.238 40.5608C264.477 39.7753 265.537 38.4446 266.283 36.7368C267.028 35.029 267.426 33.021 267.426 30.9669C267.424 28.2168 266.71 25.5801 265.44 23.6342C264.171 21.6882 262.45 20.5915 260.654 20.584ZM260.654 22.1803C261.789 22.1803 262.898 22.6956 263.842 23.6611C264.786 24.6266 265.522 25.9988 265.956 27.6044C266.39 29.2099 266.504 30.9766 266.282 32.6811C266.061 34.3855 265.514 35.9511 264.712 37.18C263.909 38.4088 262.887 39.2456 261.774 39.5847C260.66 39.9237 259.506 39.7497 258.458 39.0847C257.409 38.4196 256.513 37.2934 255.882 35.8485C255.252 34.4035 254.915 32.7047 254.915 30.9669C254.914 29.8125 255.061 28.6691 255.349 27.6022C255.637 26.5353 256.06 25.5659 256.593 24.7497C257.126 23.9334 257.76 23.2862 258.456 22.8453C259.153 22.4044 259.9 22.1784 260.654 22.1803ZM258.569 26.178V35.7416H259.648V32.2383H260.995L262.416 35.7416H263.459L261.946 32.1111L262.416 31.9133C262.694 31.7756 262.945 31.5327 263.145 31.207C263.325 30.943 263.45 30.6041 263.505 30.2323C263.566 29.9011 263.6 29.5594 263.606 29.2152C263.596 28.8624 263.562 28.5121 263.505 28.1699C263.448 27.807 263.323 27.4777 263.145 27.2234C262.956 26.8742 262.702 26.6226 262.416 26.5029C262.034 26.2575 261.621 26.1465 261.207 26.178H258.569ZM259.611 27.4494H260.958C261.148 27.4106 261.341 27.4106 261.53 27.4494C261.716 27.4442 261.898 27.5337 262.047 27.7037C262.192 27.8189 262.321 27.9774 262.425 28.1699C262.536 28.4291 262.588 28.7369 262.573 29.0457C262.578 29.3619 262.527 29.6744 262.425 29.9498C262.325 30.1669 262.196 30.3497 262.047 30.4866L261.53 30.7409C261.343 30.8099 261.15 30.8338 260.958 30.8115H259.648L259.611 27.4494Z" fill="black"/>
</svg>
